<?xml version="1.0" encoding="utf-8"?>
<!-- Svg Vector Icons : http://www.onlinewebfonts.com/icon -->
<!DOCTYPE svg PUBLIC "-//W3C//DTD SVG 1.1//EN" "http://www.w3.org/Graphics/SVG/1.1/DTD/svg11.dtd">
<svg version="1.1" xmlns="http://www.w3.org/2000/svg" xmlns:xlink="http://www.w3.org/1999/xlink" x="0px" y="0px" viewBox="0 0 256 256" enable-background="new 0 0 256 256" xml:space="preserve">
<metadata> Svg Vector Icons : http://www.onlinewebfonts.com/icon </metadata>
<g> <path fill="#26ac38" d="M117.3,64.5c-0.4-11.8,4.9-23.7,10.3-34c2.4-4.7,5.1-9.3,8-13.7c1.8-2.8,3.2-6.5,6.9-7c2.2-0.3,5,0,6.2,2.1 s-0.1,4.3-1,6.2c-1.7,3.8-3.4,7.6-5,11.5c-3.4,8.4-7.6,18.4-6.4,27.7c0.4,2.8,1.5,5.6,3.9,7.3C140.2,64.5,117.4,69.5,117.3,64.5z" /> <path fill="#1d893b" d="M137.2,66.7c0,0,11.9-0.3,26.2-19.4s29.3-14.7,29.3-14.7s-11.9-6.3-35.3,9.9 C134,58.8,137.2,66.7,137.2,66.7L137.2,66.7z"/> <path fill="#23903a" d="M90.2,8.7c0,0,5.2,39.2,32.9,51.9l-10.7,7.1C112.4,67.7,89.4,36.4,90.2,8.7z"/> <path fill="#d5301e" d="M246,139.3c0,69.2-52.8,108.1-118,108.1S10,208.5,10,139.3c0-40.8,18.4-66.5,46.9-80.6 c9.7-4.8,20.5-7,31.3-6.4c11.6,0.7,21.6,5.2,32.8,7.8c14.7,3.3,29-2.6,43.4-4.6c16.1-2.2,33.7,1.1,47.1,10.5 C232.8,81,246,104.7,246,139.3L246,139.3z"/></g>
</svg>